<svg aria-hidden="true" style="position: absolute; width: 0; height: 0; overflow: hidden;" version="1.1" xmlns="http://www.w3.org/2000/svg" xmlns:xlink="http://www.w3.org/1999/xlink">
  <defs>
    <symbol id="star" viewBox="0 0 18 16">
      <path d="M7.8.5a.9.9 0 0 1 1.6 0l1.8 4.1c.1.3.4.5.7.5l4.5.4c.8 0 1.1 1 .5 1.4l-3.4 3c-.3.1-.4.5-.3.8l1 4.3c.2.7-.6 1.3-1.2.9l-4-2.3a.9.9 0 0 0-.8 0l-4 2.3c-.6.4-1.4-.2-1.2-1l1-4.2c.1-.3 0-.7-.2-.9L.3 7c-.6-.4-.3-1.4.5-1.4L5.3 5c.4 0 .6-.2.8-.5l1.7-4Z"/>
    </symbol>
    <symbol id="search" viewBox="0 0 24 24">
      <path d="M19.47 20.53a.75.75 0 1 0 1.06-1.06l-1.06 1.06ZM17.25 10.5a6.75 6.75 0 0 1-6.75 6.75v1.5c4.56 0 8.25-3.7 8.25-8.25h-1.5Zm-6.75 6.75a6.75 6.75 0 0 1-6.75-6.75h-1.5c0 4.56 3.7 8.25 8.25 8.25v-1.5ZM3.75 10.5a6.75 6.75 0 0 1 6.75-6.75v-1.5a8.25 8.25 0 0 0-8.25 8.25h1.5Zm6.75-6.75a6.75 6.75 0 0 1 6.75 6.75h1.5c0-4.56-3.7-8.25-8.25-8.25v1.5Zm10.03 15.72-4.19-4.19-1.06 1.06 4.19 4.19 1.06-1.06Z"></path>
    </symbol>
    <symbol id="close" viewBox="0 0 11 11">
      <path d="M11 1.1 9.9 0 5.5 4.4 1.1 0 0 1.1l4.4 4.4L0 9.9 1.1 11l4.4-4.4L9.9 11 11 9.9 6.6 5.5 11 1.1Z"/>
    </symbol>
  </defs>
</svg>
